<?xml version="1.0" encoding="iso-8859-1"?>
<!-- Generator: Adobe Illustrator 19.0.0, SVG Export Plug-In . SVG Version: 6.00 Build 0)  -->
<svg version="1.1" id="Capa_1" xmlns="http://www.w3.org/2000/svg" xmlns:xlink="http://www.w3.org/1999/xlink" x="0px" y="0px"
	 viewBox="0 0 503.607 503.607" style="enable-background:new 0 0 503.607 503.607;" xml:space="preserve">
<g>
	<g>
		<g>
			<path d="M335.738,251.802c9.258,0,16.787-7.529,16.787-16.787c0-9.258-7.529-16.787-16.787-16.787
				c-9.258,0-16.787,7.529-16.787,16.787C318.951,244.274,326.48,251.802,335.738,251.802z"/>
			<path d="M100.721,406.619l76.766-125.616c1.486-2.426,4.088-3.937,6.933-4.021c2.778-0.252,5.523,1.284,7.134,3.618
				l69.036,99.714l51.729-66.518c1.586-2.04,4.029-3.232,6.614-3.24h0.017c2.577,0,5.011,1.183,6.597,3.206l77.337,98.43V167.868
				H100.721V406.619z M293.77,226.622h9.585c0.789-3.047,1.998-5.909,3.567-8.553l-10.693-10.693c-3.282-3.282-3.282-8.586,0-11.868
				c3.282-3.282,8.586-3.282,11.868,0l10.693,10.693c2.644-1.57,5.506-2.778,8.553-3.567v-9.585c0-4.633,3.76-8.393,8.393-8.393
				c4.633,0,8.393,3.76,8.393,8.393v9.585c3.047,0.789,5.909,1.998,8.553,3.567l10.693-10.693c3.282-3.282,8.586-3.282,11.868,0
				c3.282,3.282,3.282,8.586,0,11.868l-10.693,10.693c1.57,2.644,2.778,5.506,3.567,8.553h9.585c4.633,0,8.393,3.76,8.393,8.393
				s-3.76,8.393-8.393,8.393h-9.585c-0.789,3.047-1.998,5.909-3.567,8.553l10.693,10.693c3.282,3.282,3.282,8.586,0,11.868
				c-1.637,1.637-3.785,2.459-5.934,2.459s-4.297-0.823-5.934-2.459l-10.693-10.693c-2.644,1.57-5.506,2.778-8.553,3.567v9.585
				c0,4.633-3.76,8.393-8.393,8.393c-4.633,0-8.393-3.76-8.393-8.393v-9.585c-3.047-0.789-5.909-1.998-8.553-3.567l-10.693,10.693
				c-1.637,1.637-3.785,2.459-5.934,2.459s-4.297-0.823-5.934-2.459c-3.282-3.282-3.282-8.586,0-11.868l10.693-10.693
				c-1.57-2.644-2.778-5.506-3.567-8.553h-9.585c-4.633,0-8.393-3.76-8.393-8.393S289.137,226.622,293.77,226.622z"/>
			<polygon points="352.525,4.918 352.525,100.72 448.327,100.72 			"/>
			<path d="M344.131,117.508c-4.633,0-8.393-3.76-8.393-8.393V0H58.754c-4.633,0-8.393,3.76-8.393,8.393v486.82
				c0,4.633,3.76,8.393,8.393,8.393h386.098c4.633,0,8.393-3.76,8.393-8.393V117.508H344.131z M419.513,436.442
				c-0.369,3.332-1.561,6.362-5.279,7.797c-2.997,1.15-6.539,0.613-9.678,0.613H393.56h-20.044h-25.634h-29.805h-32.609h-33.985
				h-33.977H184.95h-29.755h-25.533h-19.926H96.827c-3.567,0-7.319,0.378-10.164-2.258c-3.651-3.399-2.728-9.711-2.728-14.353
				v-16.661v-23.653v-28.84v-32.214v-33.758v-33.507v-31.425v-27.547v-21.84v-14.328v-4.994c0-4.633,3.76-8.393,8.393-8.393h318.951
				c4.633,0,8.393,3.76,8.393,8.393v5.422v14.991v22.646v28.403v32.239v34.178v34.22v32.34v28.571v22.881v15.293
				C419.672,432.522,419.722,434.529,419.513,436.442z"/>
			<path d="M266.824,399.643c-1.645,2.107-4.214,3.374-6.857,3.24c-2.677-0.076-5.154-1.418-6.673-3.609l-68.197-98.522
				l-77.799,127.312H394.01l-75.029-95.484L266.824,399.643z"/>
		</g>
	</g>
</g>
<g>
</g>
<g>
</g>
<g>
</g>
<g>
</g>
<g>
</g>
<g>
</g>
<g>
</g>
<g>
</g>
<g>
</g>
<g>
</g>
<g>
</g>
<g>
</g>
<g>
</g>
<g>
</g>
<g>
</g>
</svg>
